<?xml version="1.0" encoding="UTF-8"?>
<svg version="1.1" xmlns="http://www.w3.org/2000/svg" width="156" height="169">
<path d="M0 0 C51.48 0 102.96 0 156 0 C156 55.77 156 111.54 156 169 C104.52 169 53.04 169 0 169 C0 113.23 0 57.46 0 0 Z " fill="#FCFCFC" transform="translate(0,0)"/>
<path d="M0 0 C12.42075239 10.44387589 18.56777974 24.09822929 20.3515625 40 C20.43664062 40.72574219 20.52171875 41.45148438 20.609375 42.19921875 C21.53124525 58.33194819 13.63473557 72.1263233 3.3515625 83.7421875 C-4.00427559 91.83455976 -12.20398018 98.62396048 -20.9609375 105.125 C-21.71383057 105.69412109 -22.46672363 106.26324219 -23.24243164 106.84960938 C-27.73388749 110.09733096 -31.03232642 111.98576398 -36.6484375 112 C-38.6484375 110 -38.6484375 110 -38.84375 107.3984375 C-38.82054687 106.40070313 -38.79734375 105.40296875 -38.7734375 104.375 C-38.75539062 103.37210937 -38.73734375 102.36921875 -38.71875 101.3359375 C-38.69554687 100.56507813 -38.67234375 99.79421875 -38.6484375 99 C-40.15470703 99.05220703 -40.15470703 99.05220703 -41.69140625 99.10546875 C-56.24895584 98.71745904 -70.26434014 91.98788379 -80.6484375 82 C-86.52900476 75.30704668 -91.06397981 68.55298429 -93.6484375 60 C-93.87144531 59.32066406 -94.09445313 58.64132813 -94.32421875 57.94140625 C-98.374715 43.36513065 -95.59428236 27.85530112 -88.5234375 14.75 C-80.25941363 1.53461001 -68.50866663 -6.71339544 -53.6484375 -11 C-35.04624518 -14.88625188 -15.23126294 -11.50207467 0 0 Z " fill="#353F50" transform="translate(118.6484375,39)"/>
<path d="M0 0 C2.3203125 -0.23828125 2.3203125 -0.23828125 5 0 C6.5546875 1.64453125 6.5546875 1.64453125 7.875 3.8125 C10.75485246 7.9527459 13.00637999 9.64579796 18 11 C24.61276823 11.95854806 30.42365475 10.74273076 36 7 C38.05213345 4.76609249 39.43374618 2.62726447 41 0 C43.475 0.495 43.475 0.495 46 1 C46.65234375 2.75390625 46.65234375 2.75390625 47 5 C43.47920564 12.40987265 36.92283156 16.52893816 29.5 19.3125 C21.35411333 20.91258488 15.27178161 20.05564405 8 16 C4.11151978 12.91356358 0.88073304 9.6552798 -1 5 C-0.625 2.25 -0.625 2.25 0 0 Z " fill="#F3F3F4" transform="translate(58,92)"/>
<path d="M0 0 C3.37013879 0.67402776 4.51677007 1.7087875 6.5 4.5 C6.95319325 7.67235276 7.02990283 9.56487736 5.4375 12.375 C2.3930714 14.14273274 -0.0631012 13.86823916 -3.5 13.5 C-5.4375 12.375 -5.4375 12.375 -6.5 10.5 C-7.04624158 6.83237794 -6.97898298 5.1741242 -4.8125 2.125 C-2.5 0.5 -2.5 0.5 0 0 Z " fill="#F6F6F7" transform="translate(99.5,64.5)"/>
<path d="M0 0 C3.375 0.9375 3.375 0.9375 5.375 3.9375 C5.69662076 7.0250593 5.86224515 9.07765561 4.3125 11.8125 C1.2680714 13.58023274 -1.1881012 13.30573916 -4.625 12.9375 C-6.5625 11.8125 -6.5625 11.8125 -7.625 9.9375 C-8.16352618 6.32168138 -8.04736225 4.59638511 -6.0625 1.5 C-3.625 -0.0625 -3.625 -0.0625 0 0 Z " fill="#F6F6F7" transform="translate(63.625,65.0625)"/>
</svg>
